<svg width="746" height="529" viewBox="0 0 746 529" fill="none" xmlns="http://www.w3.org/2000/svg">
<path d="M286.892 181.991C355.862 161.125 412.354 154.885 454.729 164.049C497.02 173.194 525.273 197.678 537.93 238.467C550.529 279.072 530.192 317.994 494.486 350.679C458.8 383.345 407.98 409.556 360.285 424.623C312.594 439.689 253.211 447.614 204.04 440.7C154.827 433.781 116.255 412.091 109.291 368.283C102.264 324.078 112.254 287.994 141.098 257.734C170.002 227.412 217.912 202.861 286.892 181.991Z" stroke="#F2F3F3" stroke-width="2"/>
<path d="M243.102 219.093C312.072 198.226 368.564 191.987 410.939 201.15C453.23 210.295 481.483 234.78 494.14 275.568C506.74 316.173 486.402 355.095 450.696 387.78C415.011 420.446 364.19 446.658 316.495 461.724C268.804 476.79 209.422 484.715 160.25 477.802C111.037 470.882 72.4655 449.192 65.5014 405.384C58.4742 361.179 68.4642 325.095 97.3083 294.835C126.213 264.513 174.123 239.962 243.102 219.093Z" stroke="#F2F3F3" stroke-width="2"/>
<path d="M331.648 144.184C400.619 123.318 457.11 117.078 499.485 126.242C541.777 135.387 570.03 159.872 582.686 200.66C595.286 241.265 574.949 280.187 539.242 312.872C503.557 345.538 452.736 371.749 405.042 386.816C357.35 401.882 297.968 409.807 248.797 402.893C199.584 395.974 161.012 374.284 154.048 330.476C147.021 286.271 157.011 250.187 185.855 219.927C214.759 189.605 262.669 165.054 331.648 144.184Z" stroke="#F2F3F3" stroke-width="2"/>
<path d="M378.745 105.67C447.716 84.803 504.207 78.5635 546.582 87.727C588.873 96.8724 617.126 121.357 629.783 162.145C642.383 202.75 622.046 241.672 586.339 274.357C550.654 307.023 499.833 333.234 452.139 348.301C404.447 363.367 345.065 371.292 295.894 364.378C246.681 357.459 208.109 335.769 201.145 291.961C194.117 247.756 204.107 211.672 232.952 181.412C261.856 151.09 309.766 126.539 378.745 105.67Z" stroke="#F2F3F3" stroke-width="2"/>
<path d="M429.352 66.0927C498.322 45.2261 554.814 38.9866 597.189 48.1501C639.48 57.2955 667.733 81.7797 680.39 122.568C692.99 163.173 672.652 202.095 636.946 234.78C601.261 267.446 550.44 293.658 502.746 308.724C455.054 323.79 395.672 331.715 346.501 324.802C297.288 317.882 258.716 296.192 251.752 252.384C244.724 208.179 254.714 172.095 283.559 141.835C312.463 111.513 360.373 86.9619 429.352 66.0927Z" stroke="#F2F3F3" stroke-width="2"/>
</svg>
