<svg width="656" height="469" viewBox="0 0 656 469" fill="none" xmlns="http://www.w3.org/2000/svg">
<path d="M254.588 161.349C315.792 142.85 365.923 137.318 403.526 145.442C441.055 153.55 466.127 175.257 477.359 211.42C488.539 247.419 470.492 281.927 438.807 310.904C407.139 339.865 362.041 363.103 319.717 376.462C277.396 389.819 224.699 396.845 181.065 390.715C137.393 384.581 103.165 365.351 96.9848 326.512C90.749 287.321 99.6141 255.329 125.21 228.501C150.86 201.619 193.375 179.852 254.588 161.349Z" stroke="#05668D" stroke-width="2"/>
<path d="M215.729 194.243C276.933 175.743 327.063 170.211 364.667 178.335C402.196 186.443 427.268 208.151 438.5 244.313C449.681 280.312 431.633 314.819 399.947 343.797C368.281 372.758 323.182 395.997 280.857 409.354C238.537 422.712 185.841 429.738 142.206 423.609C98.5342 417.474 64.3058 398.244 58.1259 359.405C51.89 320.213 60.7551 288.222 86.3513 261.394C112.001 234.511 154.517 212.745 215.729 194.243Z" stroke="#05668D" stroke-width="2"/>
<path d="M294.304 127.83C355.509 109.331 405.639 103.799 443.243 111.923C480.773 120.031 505.844 141.739 517.075 177.901C528.256 213.9 510.209 248.408 478.523 277.386C446.856 306.347 401.758 329.585 359.434 342.943C317.112 356.3 264.417 363.326 220.782 357.196C177.111 351.062 142.882 331.832 136.702 292.993C130.466 253.802 139.331 221.81 164.928 194.983C190.577 168.1 233.092 146.333 294.304 127.83Z" stroke="#05668D" stroke-width="2"/>
<path d="M336.098 93.6849C397.303 75.1846 447.433 69.6528 485.037 77.777C522.566 85.8851 547.637 107.593 558.869 143.754C570.05 179.754 552.003 214.261 520.317 243.239C488.65 272.2 443.552 295.438 401.228 308.796C358.906 322.153 306.211 329.18 262.576 323.05C218.905 316.916 184.676 297.686 178.496 258.846C172.259 219.655 181.124 187.664 206.722 160.836C232.371 133.953 274.886 112.187 336.098 93.6849Z" stroke="#05668D" stroke-width="2"/>
<path d="M381.007 58.5964C442.211 40.0965 492.342 34.5647 529.945 42.6889C567.474 50.797 592.546 72.5041 603.778 108.666C614.959 144.666 596.911 179.173 565.226 208.151C533.559 237.112 488.46 260.351 446.137 273.708C403.815 287.065 351.119 294.091 307.485 287.962C263.813 281.827 229.584 262.597 223.405 223.758C217.168 184.567 226.033 152.576 251.63 125.748C277.28 98.865 319.795 77.0986 381.007 58.5964Z" stroke="#05668D" stroke-width="2"/>
</svg>
